<svg xmlns="http://www.w3.org/2000/svg" viewBox="19 19 221 218" width="221" height="218">
  <!-- EpochLease Logo: 8-Segment Clock Circle -->
  <!-- Canvas: 256x256, center (128,128), outer r=100, inner r=65 -->

  <!-- Segment 1 (regular): -90° to -53° -->
  <path d="M 128.0 28.0 A 100 100 0 0 1 188.18 48.14"
        fill="none" stroke="#93C5FD" stroke-width="14" stroke-linecap="butt" />

  <!-- Segment 2 (ACTIVE WEDGE): -45° to -8° — filled sector -->
  <path d="M 203.66 52.34 A 107 107 0 0 1 233.96 113.11 L 192.37 118.95 A 65 65 0 0 0 173.96 82.04 Z"
        fill="#2563EB" />

  <!-- Segment 3 (bold): 0° to 37° -->
  <path d="M 228.0 128.0 A 100 100 0 0 1 207.86 188.18"
        fill="none" stroke="#93C5FD" stroke-width="20" stroke-linecap="butt" />

  <!-- Segment 4 (regular): 45° to 82° -->
  <path d="M 198.71 198.71 A 100 100 0 0 1 141.92 227.03"
        fill="none" stroke="#93C5FD" stroke-width="14" stroke-linecap="butt" />

  <!-- Segment 5 (regular): 90° to 127° -->
  <path d="M 128.0 228.0 A 100 100 0 0 1 67.82 207.86"
        fill="none" stroke="#93C5FD" stroke-width="14" stroke-linecap="butt" />

  <!-- Segment 6 (regular): 135° to 172° -->
  <path d="M 57.29 198.71 A 100 100 0 0 1 28.97 141.92"
        fill="none" stroke="#93C5FD" stroke-width="14" stroke-linecap="butt" />

  <!-- Segment 7 (regular): 180° to 217° -->
  <path d="M 28.0 128.0 A 100 100 0 0 1 48.14 67.82"
        fill="none" stroke="#93C5FD" stroke-width="14" stroke-linecap="butt" />

  <!-- Segment 8 (regular): 225° to 262° -->
  <path d="M 57.29 57.29 A 100 100 0 0 1 114.08 28.97"
        fill="none" stroke="#93C5FD" stroke-width="14" stroke-linecap="butt" />
</svg>
