<svg xmlns="http://www.w3.org/2000/svg" viewBox="0 0 1280 640" width="1280" height="640">
  <!-- Background -->
  <rect width="1280" height="640" fill="#F8FAFC" />

  <!-- Logo: scaled and positioned at ~1/3 from left, centered vertically -->
  <!-- Original viewBox is 0 0 256 256; scale to ~200x200 and position -->
  <g transform="translate(300, 220) scale(0.78125)">
    <!-- Segment 1 (regular): -90° to -53° -->
    <path d="M 128.0 28.0 A 100 100 0 0 1 188.18 48.14"
          fill="none" stroke="#93C5FD" stroke-width="14" stroke-linecap="butt" />

    <!-- Segment 2 (ACTIVE WEDGE): -45° to -8° — filled sector -->
    <path d="M 203.66 52.34 A 107 107 0 0 1 233.96 113.11 L 192.37 118.95 A 65 65 0 0 0 173.96 82.04 Z"
          fill="#2563EB" />

    <!-- Segment 3 (bold): 0° to 37° -->
    <path d="M 228.0 128.0 A 100 100 0 0 1 207.86 188.18"
          fill="none" stroke="#93C5FD" stroke-width="20" stroke-linecap="butt" />

    <!-- Segment 4 (regular): 45° to 82° -->
    <path d="M 198.71 198.71 A 100 100 0 0 1 141.92 227.03"
          fill="none" stroke="#93C5FD" stroke-width="14" stroke-linecap="butt" />

    <!-- Segment 5 (regular): 90° to 127° -->
    <path d="M 128.0 228.0 A 100 100 0 0 1 67.82 207.86"
          fill="none" stroke="#93C5FD" stroke-width="14" stroke-linecap="butt" />

    <!-- Segment 6 (regular): 135° to 172° -->
    <path d="M 57.29 198.71 A 100 100 0 0 1 28.97 141.92"
          fill="none" stroke="#93C5FD" stroke-width="14" stroke-linecap="butt" />

    <!-- Segment 7 (regular): 180° to 217° -->
    <path d="M 28.0 128.0 A 100 100 0 0 1 48.14 67.82"
          fill="none" stroke="#93C5FD" stroke-width="14" stroke-linecap="butt" />

    <!-- Segment 8 (regular): 225° to 262° -->
    <path d="M 57.29 57.29 A 100 100 0 0 1 114.08 28.97"
          fill="none" stroke="#93C5FD" stroke-width="14" stroke-linecap="butt" />
  </g>

  <!-- Title text -->
  <text x="540" y="305" fill="#1E293B" font-size="64" font-weight="700"
        font-family="'Segoe UI', system-ui, -apple-system, sans-serif">EpochLease</text>

  <!-- Tagline text -->
  <text x="540" y="350" fill="#64748B" font-size="22"
        font-family="'Segoe UI', system-ui, -apple-system, sans-serif">Lease-based distributed work coordination for .NET</text>
</svg>
