<svg xmlns="http://www.w3.org/2000/svg" viewBox="0 0 1280 640" width="1280" height="640">
  <!-- Background -->
  <rect width="1280" height="640" fill="#F8FAFC" />

  <!-- Logo: scaled and positioned at ~1/3 from left, centered vertically -->
  <!-- Original viewBox is 0 0 256 256; scale to ~200x200 and position -->
  <g transform="translate(300, 220) scale(0.78125)">
    <!-- Segment 7 (regular): -86° to -49° -->
    <path d="M 134.98 28.24 A 100 100 0 0 1 193.61 52.53"
          fill="none" stroke="#93C5FD" stroke-width="14" stroke-linecap="butt" />

    <!-- Segment 8 (ACTIVE WEDGE): -41° to -4° — filled sector -->
    <path d="M 208.75 57.80 A 107 107 0 0 1 234.74 120.54 L 192.84 123.47 A 65 65 0 0 0 177.06 85.36 Z"
          fill="#2563EB" />

    <!-- Segment 1 (bold): 4° to 41° -->
    <path d="M 227.76 134.98 A 100 100 0 0 1 203.47 193.61"
          fill="none" stroke="#93C5FD" stroke-width="20" stroke-linecap="butt" />

    <!-- Segment 2 (regular): 49° to 86° -->
    <path d="M 193.61 203.47 A 100 100 0 0 1 134.98 227.76"
          fill="none" stroke="#93C5FD" stroke-width="14" stroke-linecap="butt" />

    <!-- Segment 3 (regular): 94° to 131° -->
    <path d="M 121.02 227.76 A 100 100 0 0 1 62.39 203.47"
          fill="none" stroke="#93C5FD" stroke-width="14" stroke-linecap="butt" />

    <!-- Segment 4 (regular): 139° to 176° -->
    <path d="M 52.53 193.61 A 100 100 0 0 1 28.24 134.98"
          fill="none" stroke="#93C5FD" stroke-width="14" stroke-linecap="butt" />

    <!-- Segment 5 (regular): 184° to 221° -->
    <path d="M 28.24 121.02 A 100 100 0 0 1 52.53 62.39"
          fill="none" stroke="#93C5FD" stroke-width="14" stroke-linecap="butt" />

    <!-- Segment 6 (regular): 229° to 266° -->
    <path d="M 62.39 52.53 A 100 100 0 0 1 121.02 28.24"
          fill="none" stroke="#93C5FD" stroke-width="14" stroke-linecap="butt" />
  </g>

  <!-- Title text -->
  <text x="540" y="305" fill="#1E293B" font-size="64" font-weight="700"
        font-family="'Segoe UI', system-ui, -apple-system, sans-serif">EpochLease</text>

  <!-- Tagline text -->
  <text x="540" y="350" fill="#64748B" font-size="22"
        font-family="'Segoe UI', system-ui, -apple-system, sans-serif">Lease-based distributed work coordination for .NET</text>
</svg>
